<?xml version="1.0" encoding="UTF-8"?>
<svg version="1.1" xmlns="http://www.w3.org/2000/svg" width="448" height="446">
<path d="M0 0 C0.51546387 0.45375 1.03092773 0.9075 1.56201172 1.375 C43.80118956 38.62696518 68.38575452 92.04327743 72 148 C74.65190006 204.54761141 55.82139141 259.73893123 18 302 C17.50854492 302.55316895 17.01708984 303.10633789 16.51074219 303.67626953 C-18.43517353 342.85839433 -66.1801539 366.2644272 -118 373 C-119.00546875 373.13277344 -120.0109375 373.26554687 -121.046875 373.40234375 C-175.6940005 379.16714167 -232.20167751 362.37741527 -275.140625 328.375 C-278.76341173 325.36590938 -282.28140764 322.26402253 -285.7421875 319.0703125 C-287.76475254 317.21571134 -289.83483984 315.44964839 -291.9375 313.6875 C-300.87586626 305.86868669 -308.2951421 296.75950663 -315 287 C-313.62792243 283.92321319 -312.06507306 281.81719358 -309.68441772 279.44390869 C-309.00012192 278.75686356 -308.31582611 278.06981842 -307.61079407 277.36195374 C-306.8605748 276.61892502 -306.11035553 275.8758963 -305.33740234 275.11035156 C-304.15190544 273.92441658 -304.15190544 273.92441658 -302.94245911 272.71452332 C-300.32833109 270.10178891 -297.70718956 267.49621046 -295.0859375 264.890625 C-293.27232057 263.08073808 -291.45914463 261.27040917 -289.64639282 259.45965576 C-285.36125966 255.18137929 -281.07170349 250.90758699 -276.77997172 246.63593364 C-271.89336221 241.77168982 -267.0124401 236.90175614 -262.13198543 232.03133821 C-252.09430211 222.01455201 -242.04950407 212.00492579 -232 202 C-227.63663789 205.66169714 -223.45805682 209.41857384 -219.43188477 213.45458984 C-218.92367691 213.96265167 -218.41546906 214.4707135 -217.89186096 214.99417114 C-216.2393232 216.64739668 -214.5903401 218.30411808 -212.94140625 219.9609375 C-211.78577771 221.11843426 -210.62992586 222.27570811 -209.47386169 223.43276978 C-206.45172262 226.45870218 -203.43260047 229.48762697 -200.41412354 232.51721191 C-197.32544553 235.61617295 -194.23388665 238.71225713 -191.14257812 241.80859375 C-185.09224902 247.86960394 -179.04510807 253.93378247 -173 260 C-169.68148114 258.55258883 -167.49965138 256.74697666 -164.95037842 254.19088745 C-164.15394928 253.39720764 -163.35752014 252.60352783 -162.53695679 251.78579712 C-161.67236847 250.91401825 -160.80778015 250.04223938 -159.91699219 249.14404297 C-158.99957245 248.22691528 -158.08215271 247.3097876 -157.13693237 246.36486816 C-154.62448703 243.8529964 -152.11825394 241.33500797 -149.61308956 238.81587744 C-146.99281223 236.1830938 -144.36686638 233.55597647 -141.74151611 230.92825317 C-136.77231118 225.95283319 -131.80822631 220.97233713 -126.8459599 215.98999798 C-121.19575337 210.31743327 -115.53986372 204.65054957 -109.88348913 198.98413634 C-98.2493233 187.32906793 -86.62231655 175.66688468 -75 164 C-59.39373345 171.80313327 -49.33783702 187.66216298 -37 200 C-36.67 165.68 -36.34 131.36 -36 96 C-87.48 96.495 -87.48 96.495 -140 97 C-127.79 109.21 -115.58 121.42 -103 134 C-107.01936488 138.68925903 -111.00937732 143.15100655 -115.37255859 147.48608398 C-115.97815613 148.09182755 -116.58375366 148.69757111 -117.20770264 149.32167053 C-119.18558341 151.29886146 -121.16696914 153.27249876 -123.1484375 155.24609375 C-124.53013639 156.62592516 -125.91161288 158.0059793 -127.2928772 159.38624573 C-130.91064913 163.0002185 -134.53141519 166.61117673 -138.15283203 170.22149658 C-141.85501777 173.91341203 -145.55433771 177.60819663 -149.25390625 181.30273438 C-156.49981631 188.53795303 -163.74889555 195.76998741 -171 203 C-174.97526224 201.3993244 -177.64020304 198.62856444 -180.59472656 195.63232422 C-181.14151062 195.08583221 -181.68829468 194.53934021 -182.25164795 193.97628784 C-184.05275649 192.17378907 -185.84668247 190.36431604 -187.640625 188.5546875 C-188.89000495 187.30157633 -190.13982801 186.04890681 -191.39007568 184.79666138 C-194.67586872 181.50324045 -197.9556107 178.20385709 -201.23413086 174.90319824 C-204.58214253 171.53471006 -207.93583907 168.1718924 -211.2890625 164.80859375 C-217.86495296 158.21126824 -224.43446516 151.60763017 -231 145 C-236.89015888 149.8835379 -242.27979467 155.15670035 -247.66723633 160.58544922 C-248.62044355 161.54221942 -249.57389068 162.49875065 -250.52755737 163.45506287 C-252.56743282 165.50144862 -254.60578631 167.54933379 -256.64298439 169.59838486 C-259.86275827 172.8365458 -263.08695908 176.07027457 -266.31193542 179.30325317 C-275.47695444 188.49235857 -284.63594623 197.68745804 -293.79077148 206.88671875 C-298.85695571 211.97741492 -303.92669937 217.06453909 -309.00031871 222.14782536 C-312.20939572 225.36345442 -315.4139094 228.5835428 -318.61514914 231.80697322 C-320.60057135 233.80408639 -322.5901242 235.79704328 -324.58089828 237.78882027 C-325.94837265 239.1594812 -327.31083444 240.53513726 -328.673172 241.91090393 C-329.88638123 243.12215691 -329.88638123 243.12215691 -331.12409973 244.35787964 C-331.82847577 245.06539808 -332.53285181 245.77291653 -333.25857258 246.50187492 C-335 248 -335 248 -337 248 C-347.18715181 223.9283291 -355.26343152 198.36301364 -356 172 C-356.02578125 171.20674316 -356.0515625 170.41348633 -356.078125 169.59619141 C-357.40212857 123.28089166 -345.88777823 75.69810338 -318 38 C-317.24460937 36.97390625 -316.48921875 35.9478125 -315.7109375 34.890625 C-304.28130518 19.61359836 -291.92344777 5.93032689 -277 -6 C-275.84757812 -6.97066406 -275.84757812 -6.97066406 -274.671875 -7.9609375 C-243.97286268 -33.54344776 -205.34775042 -48.07171389 -166 -53 C-165.01 -53.13148437 -164.02 -53.26296875 -163 -53.3984375 C-103.99467978 -59.74493997 -44.04133457 -39.25938529 0 0 Z " fill="#F0F0F1" transform="translate(368,64)"/>
</svg>
